<?xml version="1.0" encoding="UTF-8"?>
<svg id="Layer_2" data-name="Layer 2" xmlns="http://www.w3.org/2000/svg" viewBox="0 0 282.4 131.46">
  <defs>
    <style>
      .cls-1 {
        fill: #58129b;
      }

      .cls-1, .cls-2, .cls-3, .cls-4 {
        fill-rule: evenodd;
        stroke-width: 0px;
      }

      .cls-5 {
        font-family: Bauhaus93, 'Bauhaus 93';
        font-size: 31.34px;
      }

      .cls-5, .cls-4 {
        fill: #fff;
      }

      .cls-3 {
        fill: #8710d8;
      }
    </style>
  </defs>
  <g id="TEXTS">
    <g>
      <path class="cls-2" d="M282.4,59.01l-11.18,39.74H115.47l-11.18-39.74c59.25.57,118.87.57,178.11,0Z"/>
      <g>
        <g>
          <path class="cls-2" d="M24.87,40.04l29.45-17.7c9.09-5.46,21-2.5,26.46,6.59l32.56,54.17c5.46,9.09,2.5,21-6.59,26.46l-29.45,17.7c-9.09,5.46-21,2.5-26.46-6.59l-32.56-54.17c-5.46-9.09-2.5-21,6.59-26.46Z"/>
          <g>
            <path class="cls-4" d="M75.29,21.97l29.07,16.65c8.97,5.14,11.11,16.62,5.97,26.21l-30.58,57.11c-2.85,5.32-9.5,8.64-15.38,9.37-4.73.59-9.08-.52-14.59-3.68l-29.07-16.65c-8.97-5.14-11.66-16.93-5.97-26.21L48.64,29.49c5.69-9.28,17.68-12.66,26.66-7.52Z"/>
            <path class="cls-3" d="M75.44,21.97l30.05,16.65c9.28,5.14,12.66,16.93,7.52,26.21l-30.63,55.28c-5.14,9.28-16.93,12.66-26.21,7.52l-30.05-16.65c-9.28-5.14-12.66-16.93-7.52-26.21l30.63-55.28c5.14-9.28,16.93-12.66,26.21-7.52Z"/>
            <polygon class="cls-4" points="97.12 97.95 81.45 121.64 93.69 99.62 97.12 97.95"/>
          </g>
          <g>
            <path class="cls-4" d="M81.42,45.37c2.32,0,4.2-1.89,4.2-4.2s-1.89-4.2-4.2-4.2-4.2,1.89-4.2,4.2,1.89,4.2,4.2,4.2Z"/>
            <path class="cls-2" d="M73.36,20.97c.29-1.03.71-2.45,1.04-3.3.39-.99.83-1.99,1.34-2.98,2.81-5.56,6.85-9.87,11.1-12.33,4.42-2.56,9.1-3.16,13-1.19,3.9,1.97,6.19,6.09,6.75,11.17.54,4.88-.53,10.68-3.34,16.25-2.58,5.1-6.18,9.14-10.04,11.68-4.03,2.65-8.37,3.67-12.17,2.59-.69-.2-1.09-.91-.89-1.6.2-.69.91-1.09,1.6-.89,3.05.87,6.64-.01,10.05-2.25,3.5-2.3,6.78-5.99,9.15-10.69,2.58-5.11,3.57-10.39,3.08-14.8-.47-4.22-2.29-7.6-5.35-9.15-3.06-1.55-6.87-1.01-10.54,1.12-3.84,2.23-7.51,6.15-10.09,11.26-.46.91-.87,1.83-1.24,2.76-.14.35-.27.71-.39,1.06-.15.42-.46,1.61-.69,2.45l-.29-.16c-.68-.38-1.37-.71-2.08-.99Z"/>
            <path class="cls-4" d="M80.53,43.2c7.45.51,13.25-2.13,18.15-7.76,3.93-4.51,5.53-8.61,7.2-13.96-1.37,7.67-4.56,13.66-10.05,18.19-4.8,3.96-9.37,5.28-15.54,4.98l.24-1.44Z"/>
          </g>
        </g>
        <path class="cls-2" d="M21.05,95.83c-16.22,2.38-29.88,5.9-9.01,8.96,20.87,3.06,47.05,9.39,57.66,4.93l42.26-17.75c3.55-1.49,2.91-3.32-.72-4.06-5.43-1.11-11.69-2.25-12.71-2.3,0,0-73.88,7.36-77.49,10.22Z"/>
        <g>
          <path class="cls-2" d="M67.87,81.3c-3.01-.18-4.47-.27-7.43-.45-3.69-.22-7.01,5.21-7.42,12.13s2.26,12.71,5.95,12.93c3.01.18,4.47.27,7.43.45,3.69.22,7.01-5.21,7.42-12.13s-2.26-12.71-5.95-12.93Z"/>
          <path class="cls-2" d="M104.42,75.62c-1.65-.1-2.45-.15-4.08-.25-2.02-.12-3.84,3.68-4.07,8.5-.22,4.82,1.24,8.82,3.26,8.94,1.65.1,2.45.15,4.08.25,2.02.12,3.84-3.69,4.07-8.5.22-4.82-1.24-8.82-3.26-8.94Z"/>
          <path class="cls-2" d="M22.73,84.09c-1.65-.36-2.45-.54-4.08-.89-2.02-.44-3.84,3.07-4.07,7.86-.22,4.78,1.24,9.02,3.26,9.46,1.65.36,2.45.54,4.08.89,2.02.44,3.84-3.07,4.07-7.86.22-4.78-1.24-9.02-3.26-9.46Z"/>
          <path class="cls-4" d="M.64,89.4c-.2-2.28-.28-5.1.28-7.17.41-1.49,1.21-3.04,2.24-4.26.12-1.33.52-2.87.93-4.01.55-1.52,1.37-3,2.68-3.99.71-.54,1.58-.89,2.4-1.21,1.05-.42,2.11-.79,3.17-1.16,2.83-.98,5.69-1.89,8.55-2.78,3.72-1.16,7.44-2.29,11.18-3.4,10.04-8.23,17.09-11.28,30.34-11.42,10.24-.11,24.38.71,33.22,6.26,2.6,1.63,5.35,3.74,7.38,6.05.58.66,1.38,1.27,2.09,1.78.84.61,1.71,1.17,2.6,1.7.5.3,1.01.61,1.53.86,1.98.95,2.44,3.01,2.74,4.97.23,1.5.37,3.02.5,4.54.16,1.96.05,3.95.28,5.93.49,4.24-1.6,5.74-4.98,5.81l-.75-12.09v-2.76l-97.35,7.14c-3.49-.79-3.9,14.45-4.51,15.06-4.87-.29-5.79-4.03-4.51-5.83Z"/>
          <path class="cls-2" d="M32.99,63.16c9.7-8.01,16.29-11.09,29.43-11.23,9.59-.1,23.66.63,32.17,5.97,2.36,1.48,5.09,3.57,6.96,5.69.67.76,1.58,1.48,2.41,2.07.88.64,1.81,1.24,2.74,1.79.54.32,1.13.67,1.69.94,1.24.59,1.47,2.32,1.65,3.51.22,1.46.36,2.94.48,4.41.11,1.34.21,2.68.3,4.02.05.74.08,1.52.16,2.25.13,1.12-.13,2.44-.77,3.34l-.12.17-4.57,3.75v-7.52c0-1.05-.06-2.19-.29-3.23-.06-.27-.24-.97-.44-1.32-.08.04-.16.08-.2.11-.83.53-1.54,3.55-1.73,4.5-.4,1.98-.67,4.16-.77,6.2l-.06,1.08-30.17,10.32.33-2.82c.38-3.28.61-9.57-.64-12.72-.36-.91-1.01-1.9-1.99-2.23-2.2-.74-4.29,2.09-5.15,3.62-.64,1.15-1.1,2.42-1.43,3.7-.67,2.54-.9,5.22-1.03,7.87-.05,1-.07,2.02-.14,3.02-.06.83-.13,1.83-.72,2.44-1.34,1.39-6.32,1.28-8.13,1.24-3.01-.06-6.05-.32-9.06-.65-4.55-.5-9.09-1.19-13.61-1.97-4.06-.7-24.81-4.23-27.97-7.58-1.25-1.33-.69-2.84.31-3.88-.24-2.28-.37-5.38.15-7.27.37-1.37,1.21-2.91,2.27-3.98v-.02c0-1.21.46-3.02.85-4.12.42-1.15,1.04-2.36,2.02-3.11.52-.39,1.33-.71,1.94-.96,1.01-.41,2.05-.77,3.09-1.13,2.81-.97,5.65-1.87,8.49-2.76,3.83-1.2,7.67-2.36,11.53-3.5Z"/>
          <path class="cls-3" d="M33.87,64.71c-5.48,1.62-23.2,6.94-24.85,8.19-1.65,1.25-2.25,5.2-2.25,5.95v.75s-1.67,1.29-2.33,3.69c-.65,2.4,0,7.51,0,7.51,0,0-1.69,1.14-.9,1.97.79.84,5.56,3.34,26.96,7.03,21.4,3.69,28.61,2.62,29.36,1.84.75-.78-.38-10.53,3.08-16.71,3.45-6.17,8.41-5.58,10.21-1.04,1.8,4.54.75,13.56.75,13.56l26.5-9.07s-.56-4.57.24-8.38c.37-1.78,1.38-3.83,2.24-4.37,1.64-1.04,4.01,0,4.66,1.58,1.24,3.01.92,5.06.94,8l.33-.33s.64-.9.49-2.2c-.15-1.3-.66-12.32-1.56-12.75-.9-.43-5.41-2.95-7.43-5.25-1.39-1.57-5.26-5.08-10.38-7.41-6.45-2.94-20.69-3.69-27.38-3.62-12.67.14-18.9,2.97-28.67,11.07Z"/>
          <path class="cls-1" d="M11.98,77.13c-.19.2-.4,1.39-.41,2.84,0,.67.46,1.16,1.07,1.32,5.55,1.49,15.88,2.82,22.35,3.39,1.15.1,2.26.33,2.8-.83.56-1.19.58-2.12-.09-2.78-.48-.47-8.53-1.44-15.19-2.37-5.88-.82-10.48-1.64-10.54-1.57h0ZM11.39,81.68c-.02-.13,4.96,2.03,12.07,2.71,2.88.28,8.61,1.29,12.36,1.03,1.28-.09,1.27-.18.36.94-2.21,2.71-4.57,2.85-9.78,2.32-5.62-.58-9.37-1.43-12.54-2.59-1.44-.53-2.23-2.59-2.47-4.41Z"/>
          <path class="cls-1" d="M4.22,84.54c-.26,2.58.21,6.26.21,6.26,0,0-1.69,1.14-.9,1.97.79.84,5.56,3.34,26.96,7.03,21.4,3.69,28.61,2.62,29.36,1.84.75-.78-.38-10.53,3.08-16.71,3.45-6.17,8.41-5.58,10.21-1.04,1.8,4.54.75,13.56.75,13.56l26.5-9.07s-.28-10.35,2.48-11.97c2.72-1.59,3.99.53,4.66,2.99.78,2.88.36,6.5.43,6.42l.84-.96s.64-.9.49-2.2c-.12-1.04-.46-8.23-1.06-11.34-.12.54-.27,1.11-.46,1.6-.6,1.54-9.16,2.15-9.16,2.15l-25.23,5.84s-1.73-2.81-5.03-2.48c-3.3.33-5.63,5.29-7.58,9-1.54,2.92-5.73,4.62-8.4,5,2.75,2,5.13,7.83,3.74,8.18-1.43.36-9.76-.36-10.44-1.15-.68-.79-1.58-6.18-2.03-6.35-.45-.18-7.06-.95-7.06-.95,1.55-.34,3.27-.63,5-.82-3.38.06-6.43.38-6.88.61-.9.47-4.66-.28-4.66-.28,0,0-19-2.72-19.97-3.45-.94-.71-4.59-3.17-5.87-3.69Z"/>
          <path class="cls-2" d="M4.33,83.78c-.46,2.54-.19,6.68-.19,6.68.1.42,1.01.84,1.61.98.63.14,1.26.32,1.45-.15.33-.84.69-2.38.79-3.43.15-1.49.04-1.87-3.66-4.07Z"/>
          <path class="cls-2" d="M9.02,72.9c-1.65,1.25-2.25,5.2-2.25,5.95v.75s-.03.03-.09.08c.24.26,1.95,1.26,2.88,1.72.24.12.53-.09.55-.27.14-1.29.02-3.72.02-4.1,0-.28-.64-4.48-1.11-4.13Z"/>
          <path class="cls-2" d="M50.19,55.15c-5.64,1.59-10.31,4.58-16.3,9.54l40.13,3.58s4.69-11.34,4.35-11.83c-.33-.49-19.61-1.04-28.18-1.3Z"/>
          <path class="cls-2" d="M37.65,61.39c-1.76-1.12-4.32-.86-5.18,2.13-.86,2.99,2.78.58,5.18-2.13Z"/>
          <path class="cls-2" d="M45.12,79.75c-3.3,2.2-7.36,6.77-3.83,6.53,3.53-.24,13.67-.6,15.54-2.52,1.88-1.91,4.5-6.04,2.78-6.36-1.73-.33-10.89,1.22-14.49,2.36Z"/>
          <path class="cls-2" d="M11.55,76.44c-.19.2-.42,1.39-.43,2.84,0,.67.48,1.16,1.11,1.32,5.79,1.49,16.55,2.82,23.28,3.39,1.2.1,2.36.33,2.92-.83.58-1.19.61-2.12-.09-2.78-.5-.47-8.89-1.44-15.82-2.37-6.12-.82-10.91-1.64-10.98-1.57h0ZM11.24,81.16c-.02-.13,4.87,1.86,12.27,2.54,3,.28,8.97,1.29,12.88,1.03,1.33-.09,1.33-.18.37.94-2.3,2.71-4.76,2.85-10.19,2.32-5.86-.58-9.61-1.55-12.91-2.7-1.51-.53-2.18-2.3-2.42-4.13Z"/>
          <path class="cls-2" d="M35.09,92.17c5.33-1.18,12.69-1.71,15.54.11,2.85,1.82,5.41,7.98,3.98,8.35-1.43.36-9.76-.36-10.44-1.15-.68-.79-1.58-6.18-2.03-6.35-.45-.18-7.06-.95-7.06-.95Z"/>
          <path class="cls-2" d="M49.13,94.44c-2.26-.1-3.17-.26-5.12-.32-2.2-.07-5.26-.02-4.34.35.57.23,2.71.57,4.07.71,2.78.29,5.29.16,5.39-.74Z"/>
          <path class="cls-2" d="M50.56,97.15c-4.81-.21-11.19-.67-9.46.03,1.73.7,9.31,1.31,9.46-.03Z"/>
          <path class="cls-2" d="M8.66,92.46c1.8-2.14,1.95-3.49,4.5-3.18,2.55.3,19.07,3.17,19.07,3.17,0,0,2.03.57,3.83,2.93l1.8,2.36s-10.59.11-29.21-5.29Z"/>
          <path class="cls-2" d="M76.65,91.07l19.6-6.7-2.48,3.68-17.27,5.94.15-2.92Z"/>
          <path class="cls-2" d="M108.31,71.48c-6.35-2.01-28.77,2.12-43.81,5.36l-.69.09c6.99-2.94,35.42-7.27,42.1-8.01.85.5,1.53.87,1.82,1.01.13.06.26.36.38.83l.2.72Z"/>
          <path class="cls-2" d="M80.5,59.4c-1.38,3.62-2.88,9.5-2.5,9.52.45.03,19.75-2.94,20.05-3.37.64-.93-3.75-4.1-6.18-5.49-4.11-2.34-7.78-2.91-9.6-3.22-.95-.16-1.23,1.14-1.77,2.56Z"/>
          <path class="cls-2" d="M81.98,64.21c-.98.09-2.03,1.08-2.03,3.78,0,.48,0,.87.02,1.2.12,3.49,3.2,3,2.98-.27,0,0,4.81-.16,5.45-.76.32-.3.62-.7-.46-1.86-1.06-1.14-3.4-2.39-5.96-2.09Z"/>
          <polygon class="cls-2" points="76.64 89.88 99.85 82.78 94.94 85.99 76.48 93.81 76.64 89.88"/>
          <path class="cls-2" d="M13.18,71.2l-.49.41c-1.31,1.53-4.42,4.26-.99,4.75,4.92.71,13.87,2.02,20.7,2.93,3.85.52,6.37,1.14,8.74.88,2.05-.22,8.13-2,14.58-4.05,7.44-2.37,15.34-5.08,18.13-6.2,2.18-.87.55-1.48-1.84-1.9l1.62-.37s3.64,1.02,1.79,2.49c-.64.51-10.39,3.93-19.4,6.8-6.5,2.07-12.64,3.86-14.75,4.08-2.72.29-4.81-.1-9.26-.74-6.5-.94-15.75-2.41-20.39-3.08-4.19-.6-1.9-3.42-.31-5.34.55-.21,1.17-.43,1.85-.67Z"/>
          <path class="cls-4" d="M68.25,84.19c-1.23-.07-2.43.9-3.37,2.55-.98,1.72-1.66,4.15-1.81,6.88-.02.34-.03.68-.03,1.04,0,2.44.45,4.64,1.22,6.25.72,1.53,1.7,2.51,2.81,2.64.02,0,.06,0,.11,0,1.23.07,2.43-.9,3.37-2.55.98-1.72,1.66-4.15,1.81-6.88.02-.34.03-.68.03-1.04,0-2.44-.45-4.64-1.22-6.25-.72-1.53-1.71-2.51-2.81-2.64-.02,0-.06,0-.11,0h0ZM64.14,86.28c1.09-1.91,2.54-3.04,4.11-2.94.04,0,.09,0,.16.01,1.44.16,2.68,1.34,3.53,3.16.82,1.73,1.3,4.06,1.3,6.63,0,.34,0,.7-.03,1.08-.15,2.86-.87,5.41-1.91,7.24-1.09,1.9-2.54,3.04-4.11,2.94-.04,0-.09,0-.16-.01-1.44-.16-2.68-1.34-3.53-3.16-.82-1.73-1.3-4.06-1.3-6.63,0-.34,0-.7.03-1.08.15-2.86.87-5.41,1.91-7.24Z"/>
          <path class="cls-4" d="M68.09,91.26c-.32-.02-.64.23-.9.64-.31.48-.52,1.16-.57,1.93,0,.09,0,.19,0,.3,0,.68.14,1.29.37,1.73.19.37.44.61.71.64h.03c.32.02.64-.22.9-.64.31-.48.52-1.16.57-1.93,0-.09,0-.19,0-.3,0-.68-.14-1.29-.37-1.73-.19-.37-.44-.61-.71-.64h-.03ZM66.46,91.41c.42-.65,1-1.04,1.63-1,.02,0,.04,0,.08,0,.59.07,1.08.49,1.42,1.13.3.57.47,1.32.47,2.14,0,.1,0,.22-.01.34-.05.91-.31,1.73-.69,2.32-.42.65-1,1.04-1.63,1-.02,0-.04,0-.08,0-.59-.07-1.08-.49-1.42-1.13-.3-.57-.47-1.32-.47-2.14,0-.1,0-.22.01-.34.05-.91.31-1.73.69-2.32Z"/>
          <path class="cls-4" d="M67.18,91.79c-.53-.03-1.01.83-1.07,1.92-.06,1.09.33,2,.87,2.03.53.03,1.01-.83,1.07-1.92.06-1.09-.33-2-.87-2.03Z"/>
          <path class="cls-4" d="M67.18,92.22c-.1,0-.22.12-.34.34-.17.3-.28.72-.31,1.2,0,.05,0,.11,0,.19,0,.43.07.8.2,1.07.08.18.17.29.24.3h0s0,0,0,0c.1,0,.22-.12.34-.34.17-.3.28-.72.31-1.2,0-.05,0-.11,0-.19,0-.43-.07-.8-.2-1.07-.08-.18-.17-.29-.24-.3h0s0,0,0,0h0ZM66.1,92.1c.27-.48.65-.76,1.09-.74h.05c.41.05.75.36.97.83.18.38.28.89.28,1.44,0,.06,0,.14,0,.23-.03.61-.18,1.16-.4,1.56-.27.48-.65.76-1.09.74h-.05c-.41-.05-.75-.36-.97-.83-.18-.38-.28-.89-.28-1.44,0-.06,0-.14,0-.23.03-.61.18-1.16.4-1.56h0ZM66.98,95.31s0,0,0,0h0Z"/>
          <path class="cls-4" d="M104.62,77.62c-.68-.04-1.33.65-1.85,1.8-.54,1.21-.91,2.9-.99,4.8,0,.23-.01.48-.01.72,0,1.7.25,3.22.67,4.34.4,1.06.93,1.73,1.54,1.81.01,0,.03,0,.06,0,.68.04,1.33-.65,1.85-1.8.54-1.21.91-2.9.99-4.8,0-.23.01-.48.01-.72,0-1.7-.25-3.22-.67-4.34-.39-1.06-.93-1.73-1.54-1.81-.01,0-.03,0-.06,0h0ZM102.37,79.11c.6-1.34,1.4-2.14,2.25-2.08.02,0,.05,0,.09,0,.79.1,1.47.91,1.94,2.16.45,1.2.71,2.81.71,4.6,0,.24,0,.49-.02.75-.08,1.99-.48,3.77-1.05,5.05-.6,1.33-1.39,2.13-2.25,2.08-.02,0-.05,0-.09,0-.79-.1-1.47-.91-1.94-2.16-.45-1.2-.71-2.81-.71-4.6,0-.24,0-.49.02-.75.08-1.99.48-3.77,1.05-5.05Z"/>
          <path class="cls-4" d="M104.54,82.54c-.17-.01-.35.16-.5.45-.17.33-.29.81-.31,1.35,0,.06,0,.13,0,.21,0,.47.08.9.2,1.2.11.26.24.42.39.44h.02c.17.01.35-.16.5-.45.17-.33.29-.81.31-1.35,0-.06,0-.13,0-.21,0-.47-.08-.9-.2-1.2-.11-.26-.24-.42-.39-.44h-.02ZM103.64,82.66c.23-.46.55-.73.89-.71,0,0,.02,0,.04,0,.32.04.59.33.78.77.16.39.26.91.26,1.49,0,.07,0,.15,0,.24-.03.64-.17,1.21-.38,1.62-.23.46-.55.73-.89.71,0,0-.02,0-.04,0-.32-.04-.59-.33-.78-.77-.16-.39-.26-.91-.26-1.49,0-.07,0-.15,0-.24.03-.64.17-1.21.38-1.62Z"/>
          <path class="cls-4" d="M104.04,82.92c-.29-.02-.56.58-.59,1.34-.03.76.18,1.39.47,1.41.29.02.56-.58.59-1.34.03-.76-.18-1.39-.48-1.41Z"/>
          <path class="cls-4" d="M104.04,83.21c-.05,0-.12.09-.19.24-.09.21-.15.5-.17.84,0,.03,0,.08,0,.13,0,.3.04.56.11.75.05.12.09.2.13.21h0s0,0,0,0c.05,0,.12-.09.19-.24.09-.21.15-.5.17-.84,0-.03,0-.08,0-.13,0-.3-.04-.56-.11-.75-.05-.12-.09-.2-.13-.21h0s0,0,0,0h0ZM103.44,83.15c.15-.34.36-.54.6-.52h.03c.23.03.41.24.53.57.1.26.15.62.15,1,0,.04,0,.1,0,.16-.02.42-.1.81-.22,1.09-.15.34-.36.54-.6.52h-.03c-.23-.03-.41-.24-.53-.57-.1-.26-.16-.62-.16-1,0-.04,0-.1,0-.16.02-.42.1-.81.22-1.09h0ZM103.93,85.37s0,0,0,0h0Z"/>
          <path class="cls-2" d="M4.08,83.51c3.04,1.63,4.52,2.88,6.78,5.04-2.95-.45-4.1-.97-6.87-1.79l.09-3.24Z"/>
          <path class="cls-2" d="M4.57,87.71c1.04.36,1.47.42,2.36.74,1.01.37,2.41.97,1.96,1.07-.28.06-1.28-.11-1.92-.27-1.29-.32-2.43-.89-2.41-1.54Z"/>
          <path class="cls-2" d="M4.24,89.13c2.21.76,5.17,1.64,4.32,1.81-.84.17-4.35-.83-4.32-1.81Z"/>
          <path class="cls-4" d="M58.9,79.38c-3.88.33-11.13.14-14.18,2.46-1.25.95-2.7,2.5-3.84,3.64,1.06-1.58,1.99-2.82,3.47-4.08,3.11-2.64,10.34-2.65,14.4-3.12l.14,1.1Z"/>
          <path class="cls-4" d="M58.45,78.31c2.11-.17-1.66,4.37-2.37,4.96-.55.46-2.16.69-2.93.83l-1.28.23.22-1.16c.01-.07.21-.11.47-.15,2.25-.38,2.43-2.9,1.06-3.22,0,0-1.26-.16-1.29-.16l.13-.52,5.97-.79Z"/>
          <path class="cls-4" d="M7.98,74.23c.51.55.78,1.2.94,2,.2,1,.38,2.15.62,3.84,0-1.3.02-1.58-.06-2.84-.12-1.76-.4-2.9-1.04-3.73-.17.22-.32.47-.46.73Z"/>
          <path class="cls-4" d="M6.77,78.88h.02c.33.31,1.3.99,1.33.95.03-.04-.08-.17,0-.97,0-.07-.1-.17-.25-.3-1.2-1.05-.13-4.4,1.03-2.64.18.27.44.59.45.59l-.17-1.42-1.15-.92c-.9,1.68-1.24,4.1-1.24,4.67v.04Z"/>
          <path class="cls-4" d="M81.03,64.62c1.34-.03,2.62.34,4.09.99,1.26.56,1.81,1.26,2.06,1.94.12.33.17.66.18.97.51-.1.89-.21,1.05-.36.2-.19.4-.42.24-.85-.09-.26-.3-.58-.7-1.02-1.06-1.14-3.4-2.39-5.96-2.09-.32.03-.66.16-.96.42Z"/>
          <path class="cls-4" d="M46.75,63.81c-4-.97-1.79-3.79,6.6-7.94-.37-.01-5.12-.1-5.54.05-3.87,1.44-7.41,3.63-11.46,6.79-.63.58-1.27,1.1-1.85,1.48-.2.16-.4.33-.6.5l31.25,2.79c-5.61-.81-14.4-2.69-18.4-3.67Z"/>
          <path class="cls-2" d="M32.06,63.87c12.73.72,27.23,1.94,39.83,3.88,1.07.17,2,.28,3.02.61l-.56-.04c-14.24-1.28-28-2.66-42.34-3.27-.33-.02-.58-.29-.57-.62.02-.33.29-.58.62-.57Z"/>
          <path class="cls-4" d="M71.33,69.78c-2.55.98-27.89,9.35-31.65,9.35-2.03,0-20.12-2.28-27.85-3.52-1.16-.19-1.51-.81-1.48-1.13-.45.89-.32,1.65,1.34,1.89,2.7.39,6.6.95,10.7,1.54.99.14,1.99.28,2.98.42,2.42.34,4.83.68,7.02.97,3.85.52,6.37,1.14,8.74.88,2.05-.22,8.13-2,14.58-4.05,7.44-2.37,15.34-5.08,18.13-6.2,1.71-.68,1.07-1.21-.44-1.6.1.36-.52.86-2.08,1.46Z"/>
          <path class="cls-4" d="M1.77,90.97c-1.03,2.09.53,3.45,2.71,4.35,4.34,1.79,11.02,3.03,17.89,4.28,8.16,1.49,16.65,2.91,22.5,4.01l-1.34-.1c-10.97-1.15-26.01-3.34-36.82-6.13-4.23-1.09-8.13-3.05-6.2-7.16l1.26.74Z"/>
          <polygon class="cls-4" points="74 99.12 99.17 91 73.46 100.84 74 99.12"/>
          <path class="cls-4" d="M72.76,80.02c5.65-1.62,25.58-5.87,30.42-5.66-10.79,2.49-20.37,4.94-29.15,7.87l-1.27-2.2Z"/>
        </g>
      </g>
      <text class="cls-5" transform="translate(118.78 88.9)"><tspan x="0" y="0">Car Check</tspan></text>
    </g>
  </g>
</svg>