<?xml version="1.0" encoding="UTF-8"?>
<svg id="Layer_2" data-name="Layer 2" xmlns="http://www.w3.org/2000/svg" viewBox="0 0 20 20">
  <defs>
    <style>
      .cls-1 {
        fill: #787878;
        stroke-width: 0px;
      }
    </style>
  </defs>
  <g id="Layer_1-2" data-name="Layer 1">
    <path class="cls-1" d="M19.06,5h-.31v-1.88c0-1.75-3.88-3.12-8.75-3.12S1.25,1.38,1.25,3.12v1.88h-.31c-.52,0-.94.42-.94.94,0,0,0,0,0,0v3.12C0,9.58.42,10,.94,10h.31v6.25c0,.69.56,1.25,1.25,1.25v1.25c0,.69.56,1.25,1.25,1.25h1.25c.69,0,1.25-.56,1.25-1.25v-1.25h7.5v1.25c0,.69.56,1.25,1.25,1.25h1.25c.69,0,1.25-.56,1.25-1.25v-1.25h.25c.62,0,1-.5,1-1v-6.5h.31c.52,0,.94-.42.94-.94v-3.12c0-.52-.42-.94-.94-.94,0,0,0,0,0,0h0ZM6.25,1.98c0-.17.14-.31.31-.31h6.87c.17,0,.31.14.31.31v1.46c0,.17-.14.31-.31.31h-6.87c-.17,0-.31-.14-.31-.31,0,0,0,0,0,0v-1.46h0ZM4.38,15.62c-.69,0-1.25-.56-1.25-1.25s.56-1.25,1.25-1.25,1.25.56,1.25,1.25-.56,1.25-1.25,1.25ZM9.38,11.25h-4.38c-.69,0-1.25-.56-1.25-1.25v-3.75c0-.69.56-1.25,1.25-1.25h4.38v6.25h0ZM10.63,11.25v-6.25h4.38c.69,0,1.25.56,1.25,1.25v3.75c0,.69-.56,1.25-1.25,1.25h-4.38ZM15.63,15.62c-.69,0-1.25-.56-1.25-1.25s.56-1.25,1.25-1.25,1.25.56,1.25,1.25-.56,1.25-1.25,1.25Z"/>
  </g>
</svg>