<?xml version="1.0" encoding="UTF-8"?>
<svg id="Layer_2" data-name="Layer 2" xmlns="http://www.w3.org/2000/svg" viewBox="0 0 20 13">
  <defs>
    <style>
      .cls-1 {
        fill: #787878;
        stroke-width: 0px;
      }
    </style>
  </defs>
  <g id="Layer_1-2" data-name="Layer 1">
    <path class="cls-1" d="M17.12,4.64h-.48l-3.26-3.95c-.18-.22-.41-.39-.67-.51C12.45.06,12.16,0,11.88,0h-6.42c-.78,0-1.48.45-1.78,1.17l-1.44,3.54c-.83.21-1.76.53-2.24,1.79v3.25c0,.26.21.46.48.46h2.24c0,1.54,1.29,2.79,2.88,2.79s2.88-1.25,2.88-2.79h3.84c0,1.54,1.29,2.79,2.88,2.79s2.88-1.25,2.88-2.79h1.44c.26,0,.48-.21.48-.46v-2.32c0-1.54-1.29-2.79-2.88-2.79ZM5.6,11.61c-.79,0-1.44-.62-1.44-1.39s.65-1.39,1.44-1.39,1.44.62,1.44,1.39-.65,1.39-1.44,1.39ZM7.76,3.64c0,.55-.45,1-1,1h-.96c-.55,0-1-.45-1-1,0-.13.03-.26.08-.38l.32-.79c.15-.37.52-.62.92-.62h.63c.55,0,1,.45,1,1,0,0,0,.79,0,.79ZM10.2,4.64c-.55,0-1-.45-1-1v-.79c0-.55.45-1,1-1h1.21c.3,0,.58.13.77.36l.65.79c.35.43.29,1.06-.13,1.41-.18.15-.4.23-.64.23,0,0-1.86,0-1.86,0ZM15.2,11.61c-.79,0-1.44-.62-1.44-1.39s.65-1.39,1.44-1.39,1.44.62,1.44,1.39-.65,1.39-1.44,1.39Z"/>
  </g>
</svg>