<?xml version="1.0" encoding="UTF-8"?>
<svg id="Layer_2" data-name="Layer 2" xmlns="http://www.w3.org/2000/svg" viewBox="0 0 20 16">
  <defs>
    <style>
      .cls-1 {
        fill: #787878;
        stroke-width: 0px;
      }
    </style>
  </defs>
  <g id="Layer_1-2" data-name="Layer 1">
    <path class="cls-1" d="M16.5,10.5c-1.52,0-2.75,1.23-2.75,2.75s1.23,2.75,2.75,2.75,2.75-1.23,2.75-2.75-1.23-2.75-2.75-2.75ZM16.5,14c-.41-.02-.73-.37-.71-.79.02-.38.33-.69.71-.71.41.02.73.37.71.79-.02.38-.33.69-.71.71ZM19,5h-2v-1.26c0-.44.15-.87.41-1.21.13-.19.12-.44-.04-.61l-.68-.76c-.19-.21-.51-.22-.72-.03-.02.02-.04.04-.05.06-.6.72-.92,1.62-.92,2.55v1.26h-3.2l-1.75-4.09C9.81.36,9.27,0,8.67,0h-4.17C3.67,0,3,.67,3,1.5v4.58c-.27-.22-.66-.2-.9.05l-.97.97c-.27.27-.27.7,0,.97,0,0,0,0,0,0l.16.16c-.16.29-.28.59-.37.9h-.22c-.38,0-.69.31-.69.69v1.38c0,.38.31.69.69.69h.22c.09.31.22.61.37.9l-.16.16c-.27.27-.27.7,0,.97h0s.97.97.97.97c.27.27.7.27.97,0,0,0,0,0,0,0l.16-.16c.29.16.59.28.9.37v.22c0,.38.31.69.69.69h1.38c.38,0,.69-.31.69-.69v-.22c.31-.09.61-.22.9-.37l.16.16c.27.27.7.27.97,0,0,0,0,0,0,0l.97-.97c.27-.27.27-.7,0-.97,0,0,0,0,0,0l-.16-.16c.16-.29.28-.59.37-.9h.22c.38,0,.69-.31.69-.69v-.19h2.52c.7-.94,1.81-1.5,2.98-1.5.58,0,1.13.15,1.62.38l1.59-1.59c.19-.19.29-.44.29-.71v-1.59c0-.55-.45-1-1-1ZM5.5,13c-1.38,0-2.5-1.12-2.5-2.5s1.12-2.5,2.5-2.5,2.5,1.12,2.5,2.5-1.12,2.5-2.5,2.5ZM6.19,5h-1.19v-3h3.34l.69,1.61c.22.51-.02,1.1-.53,1.31-.12.05-.26.08-.39.08h-1.92Z"/>
  </g>
</svg>