<?xml version="1.0" encoding="UTF-8"?>
<svg id="Layer_2" data-name="Layer 2" xmlns="http://www.w3.org/2000/svg" viewBox="0 0 20 14">
  <defs>
    <style>
      .cls-1 {
        fill: #787878;
        stroke-width: 0px;
      }
    </style>
  </defs>
  <g id="Layer_1-2" data-name="Layer 1">
    <path class="cls-1" d="M19.42,6.42l-1.83-1.83c-.38-.37-.88-.58-1.41-.58h-1.17V1c0-.55-.45-1-1-1H1C.45,0,0,.45,0,1v10.5c0,1.38,1.12,2.5,2.5,2.5.82,0,1.54-.4,2-1.01.47.64,1.21,1.01,2,1.01,1.38,0,2.5-1.12,2.5-2.5,0-.17-.02-.34-.05-.5h5.1c-.27,1.35.6,2.67,1.95,2.95s2.67-.6,2.95-1.95c.07-.33.07-.67,0-.99h.55c.27,0,.5-.23.5-.5v-2.67c0-.53-.21-1.04-.58-1.41ZM2.5,12.5c-.55,0-1-.45-1-1s.45-1,1-1,1,.45,1,1-.45,1-1,1ZM6.5,12.5c-.55,0-1-.45-1-1s.45-1,1-1,1,.45,1,1-.45,1-1,1ZM15,5.5h1.17c.13,0,.26.05.35.15l1.35,1.35h-2.88v-1.5ZM16.5,12.5c-.55,0-1-.45-1-1s.45-1,1-1,1,.45,1,1-.45,1-1,1Z"/>
  </g>
</svg>