<?xml version="1.0" encoding="UTF-8"?>
<svg id="Layer_2" data-name="Layer 2" xmlns="http://www.w3.org/2000/svg" viewBox="0 0 20 14">
  <defs>
    <style>
      .cls-1 {
        fill: #787878;
        stroke-width: 0px;
      }
    </style>
  </defs>
  <g id="Layer_1-2" data-name="Layer 1">
    <path class="cls-1" d="M19.65,5.58L15.45.54C15.17.2,14.74,0,14.3,0H1C.45,0,0,.45,0,1v9c0,.55.45,1,1,1h1c0,1.66,1.34,3,3,3s3-1.34,3-3h4c0,1.66,1.34,3,3,3s3-1.34,3-3h1c.55,0,1-.45,1-1v-3.46c0-.35-.12-.69-.35-.96ZM3,5c-.55,0-1-.45-1-1v-1c0-.55.45-1,1-1h7v3H3ZM5,12.5c-.83,0-1.5-.67-1.5-1.5s.67-1.5,1.5-1.5,1.5.67,1.5,1.5-.67,1.5-1.5,1.5ZM15,12.5c-.83,0-1.5-.67-1.5-1.5s.67-1.5,1.5-1.5,1.5.67,1.5,1.5-.67,1.5-1.5,1.5ZM11.67,5v-3h1.93c.3,0,.58.13.77.36l.83,1c.35.42.3,1.05-.13,1.41-.18.15-.41.23-.64.23,0,0-2.76,0-2.76,0Z"/>
  </g>
</svg>